<?xml version="1.0" standalone="no"?>
<!DOCTYPE svg PUBLIC "-//W3C//DTD SVG 20010904//EN"
 "http://www.w3.org/TR/2001/REC-SVG-20010904/DTD/svg10.dtd">
<svg version="1.0" xmlns="http://www.w3.org/2000/svg"
 width="149.000000pt" height="172.000000pt" viewBox="0 0 149.000000 172.000000"
 preserveAspectRatio="xMidYMid meet">

<g transform="translate(0.000000,172.000000) scale(0.100000,-0.100000)"
fill="#000000" stroke="none">
<path d="M0 860 l0 -860 745 0 745 0 0 860 0 860 -745 0 -745 0 0 -860z m863
333 l119 -47 89 -116 c49 -63 89 -122 89 -130 0 -15 -20 -38 -226 -257 -56
-60 -116 -125 -134 -145 -35 -42 -64 -48 -89 -19 -20 22 -221 238 -313 335
-37 39 -67 77 -68 84 0 7 35 59 78 115 44 56 81 109 83 116 4 12 217 108 244
110 5 1 63 -20 128 -46z"/>
<path d="M481 1011 c-28 -38 -51 -71 -51 -75 0 -4 27 -6 61 -4 l61 3 28 51
c15 28 31 60 34 72 7 20 4 22 -37 22 -44 0 -46 -2 -96 -69z"/>
<path d="M870 1077 c0 -3 16 -37 35 -76 l35 -71 65 0 65 0 -53 73 c-52 70 -56
72 -101 75 -25 2 -46 1 -46 -1z"/>
<path d="M651 998 c-17 -29 -31 -56 -31 -60 0 -5 56 -8 125 -8 69 0 125 2 125
5 0 2 -12 30 -27 60 -25 51 -30 55 -53 49 -32 -10 -70 -10 -92 0 -13 6 -23 -4
-47 -46z"/>
<path d="M480 813 c117 -125 170 -177 162 -158 -25 63 -49 115 -71 160 l-26
50 -59 3 -60 3 54 -58z"/>
<path d="M620 860 c0 -5 11 -34 25 -64 14 -30 25 -57 25 -59 0 -3 17 -42 38
-87 l39 -82 23 53 c12 30 34 77 47 104 13 28 33 71 44 98 l19 47 -130 0 c-77
0 -130 -4 -130 -10z"/>
<path d="M942 858 c-7 -7 -12 -15 -12 -19 0 -4 -18 -46 -40 -93 -22 -47 -40
-89 -40 -95 0 -5 28 20 63 56 34 36 76 80 92 97 64 65 64 66 3 66 -30 0 -59
-5 -66 -12z"/>
</g>
</svg>
